<?xml version="1.0" encoding="UTF-8" standalone="no"?>
<svg
   height="96"
   width="96"
   version="1.1"
   id="svg2"
   inkscape:version="1.1.2 (1:1.1+202202050950+0a00cf5339)"
   sodipodi:docname="token.svg"
   xmlns:inkscape="http://www.inkscape.org/namespaces/inkscape"
   xmlns:sodipodi="http://sodipodi.sourceforge.net/DTD/sodipodi-0.dtd"
   xmlns:xlink="http://www.w3.org/1999/xlink"
   xmlns="http://www.w3.org/2000/svg"
   xmlns:svg="http://www.w3.org/2000/svg"
   xmlns:rdf="http://www.w3.org/1999/02/22-rdf-syntax-ns#"
   xmlns:cc="http://creativecommons.org/ns#"
   xmlns:dc="http://purl.org/dc/elements/1.1/">
  <metadata
     id="metadata782">
    <rdf:RDF>
      <cc:Work
         rdf:about="">
        <dc:format>image/svg+xml</dc:format>
        <dc:type
           rdf:resource="http://purl.org/dc/dcmitype/StillImage" />
      </cc:Work>
    </rdf:RDF>
  </metadata>
  <sodipodi:namedview
     pagecolor="#ffffff"
     bordercolor="#666666"
     borderopacity="1"
     objecttolerance="10"
     gridtolerance="10"
     guidetolerance="10"
     inkscape:pageopacity="0"
     inkscape:pageshadow="2"
     inkscape:window-width="1386"
     inkscape:window-height="1009"
     id="namedview780"
     showgrid="false"
     inkscape:zoom="5.6568543"
     inkscape:cx="52.767843"
     inkscape:cy="61.076348"
     inkscape:window-x="0"
     inkscape:window-y="0"
     inkscape:window-maximized="0"
     inkscape:current-layer="svg2"
     inkscape:pagecheckerboard="0"
     inkscape:snap-grids="false"
     inkscape:snap-to-guides="false"
     inkscape:snap-object-midpoints="false" />
  <defs
     id="defs4">
    <linearGradient
       id="e">
      <stop
         stop-color="#b0b0b0"
         offset="0"
         id="stop7" />
      <stop
         stop-color="#f5f5f5"
         offset="1"
         id="stop9" />
    </linearGradient>
    <linearGradient
       id="a"
       stop-color="#fff">
      <stop
         offset="0"
         id="stop12" />
      <stop
         stop-opacity="0"
         offset="1"
         id="stop14" />
    </linearGradient>
    <filter
       id="i"
       height="1.384"
       width="1.384"
       color-interpolation-filters="sRGB"
       y="-.192"
       x="-.192">
      <feGaussianBlur
         stdDeviation="5.28"
         id="feGaussianBlur17" />
    </filter>
    <linearGradient
       id="j"
       y2="138.66"
       xlink:href="#a"
       gradientUnits="userSpaceOnUse"
       x2="48"
       y1="20.221"
       x1="48" />
    <clipPath
       id="f">
      <rect
         rx="6"
         ry="6"
         height="84"
         width="84"
         y="6"
         x="6"
         fill="#fff"
         id="rect21" />
    </clipPath>
    <linearGradient
       id="d"
       y2="7.0165"
       gradientUnits="userSpaceOnUse"
       x2="45.448"
       gradientTransform="matrix(1.0059 0 0 .99417 100 0)"
       y1="92.54"
       x1="45.448">
      <stop
         offset="0"
         id="stop24" />
      <stop
         stop-opacity=".58824"
         offset="1"
         id="stop26" />
    </linearGradient>
    <clipPath
       id="g">
      <rect
         rx="8.0455"
         ry="8.0455"
         height="112.64"
         width="112.64"
         y="7.6818"
         x="27.682"
         fill="#fff"
         id="rect29" />
    </clipPath>
    <linearGradient
       id="v"
       y2="6"
       xlink:href="#d"
       gradientUnits="userSpaceOnUse"
       x2="32.251"
       gradientTransform="translate(0,1)"
       y1="90"
       x1="32.251" />
    <radialGradient
       id="h"
       xlink:href="#a"
       gradientUnits="userSpaceOnUse"
       cy="90.172"
       cx="48"
       gradientTransform="matrix(1.1573 0 0 .99591 -7.551 .19713)"
       r="42" />
    <linearGradient
       id="u"
       y2="63.893"
       xlink:href="#a"
       gradientUnits="userSpaceOnUse"
       x2="36.357"
       y1="6"
       x1="36.357" />
    <linearGradient
       id="t"
       y2="6"
       gradientUnits="userSpaceOnUse"
       x2="48"
       gradientTransform="translate(.002534 .002375)"
       y1="90"
       x1="48">
      <stop
         stop-color="#8f6033"
         offset="0"
         id="stop35" />
      <stop
         stop-color="#a87849"
         offset="1"
         id="stop37" />
    </linearGradient>
    <linearGradient
       id="s"
       y2="31.657"
       gradientUnits="userSpaceOnUse"
       x2="49.996"
       y1="71.738"
       x1="49.996">
      <stop
         stop-color="#bf2222"
         offset="0"
         id="stop40" />
      <stop
         stop-color="#e94c4c"
         offset="1"
         id="stop42" />
    </linearGradient>
    <linearGradient
       id="r"
       y2="24"
       gradientUnits="userSpaceOnUse"
       x2="40"
       gradientTransform="matrix(1,0,0,1.125,0,-10.5)"
       y1="80"
       x1="56">
      <stop
         stop-color="#e7e7e7"
         offset="0"
         id="stop45" />
      <stop
         stop-color="#fff"
         offset="1"
         id="stop47" />
    </linearGradient>
    <linearGradient
       id="q"
       y2="6"
       xlink:href="#e"
       gradientUnits="userSpaceOnUse"
       x2="51"
       gradientTransform="matrix(0,-1,1,0,42,54)"
       y1="6"
       x1="45" />
    <linearGradient
       id="p"
       y2="6"
       xlink:href="#e"
       gradientUnits="userSpaceOnUse"
       x2="52"
       gradientTransform="matrix(0,1,-1,0,54,-42)"
       y1="6"
       x1="44" />
    <linearGradient
       id="o"
       y2="5"
       gradientUnits="userSpaceOnUse"
       x2="53"
       gradientTransform="matrix(0,-1,1,0,43,54)"
       y1="5"
       x1="43">
      <stop
         stop-color="#848484"
         offset="0"
         id="stop52" />
      <stop
         stop-color="#f5f5f5"
         offset="1"
         id="stop54" />
    </linearGradient>
    <linearGradient
       id="n"
       y2="15.055"
       xlink:href="#a"
       gradientUnits="userSpaceOnUse"
       x2="36"
       y1="6"
       x1="36" />
    <linearGradient
       id="m"
       y2="6"
       gradientUnits="userSpaceOnUse"
       x2="37"
       y1="16"
       x1="37">
      <stop
         stop-color="#3b3b3b"
         offset="0"
         id="stop58" />
      <stop
         stop-color="#aeaeae"
         offset=".12203"
         id="stop60" />
      <stop
         stop-color="#e9e9e9"
         offset=".24519"
         id="stop62" />
      <stop
         stop-color="#8a8a8a"
         offset=".44692"
         id="stop64" />
      <stop
         stop-color="#f0f0f0"
         offset="1"
         id="stop66" />
    </linearGradient>
    <linearGradient
       id="l"
       y2="5.9996"
       xlink:href="#d"
       gradientUnits="userSpaceOnUse"
       x2="32.251"
       gradientTransform="matrix(1.0238 0 0 1.0119 -1.1429 .929)"
       y1="90"
       x1="32.251" />
    <linearGradient
       id="k"
       y2="90.239"
       xlink:href="#d"
       gradientUnits="userSpaceOnUse"
       x2="32.251"
       gradientTransform="matrix(1.0238,0,0,-1.0119,-1.1429,98.071)"
       y1="6.1317"
       x1="32.251" />
    <linearGradient
       id="f-3"
       y2="1.0923001"
       gradientUnits="userSpaceOnUse"
       x2="6.6201"
       gradientTransform="matrix(-3.5754836,0,0,3.0823052,74.390602,19.873355)"
       y1="16.385"
       x1="6.6201"
       spreadMethod="pad">
      <stop
         stop-color="#dcdcdc"
         offset="0"
         id="stop27" />
      <stop
         stop-color="#ebebeb"
         offset=".30654"
         id="stop29" />
      <stop
         stop-color="#fff"
         offset=".70706"
         id="stop31" />
      <stop
         stop-color="#fafafa"
         offset=".84501"
         id="stop33" />
      <stop
         stop-color="#f0f0f0"
         offset="1"
         id="stop35-6" />
    </linearGradient>
    <filter
       style="color-interpolation-filters:sRGB"
       id="filter3899">
      <feGaussianBlur
         id="feGaussianBlur3901"
         stdDeviation="0.57" />
    </filter>
    <linearGradient
       x1="12"
       y1="4.5"
       x2="12"
       y2="20.5"
       id="linearGradient3182"
       xlink:href="#linearGradient3655"
       gradientUnits="userSpaceOnUse"
       gradientTransform="matrix(4,0,0,4,0,-82)" />
    <linearGradient
       id="linearGradient3655">
      <stop
         id="stop3657"
         style="stop-color:#ad0707;stop-opacity:1"
         offset="0" />
      <stop
         id="stop3659"
         style="stop-color:#f75535;stop-opacity:1"
         offset="1" />
    </linearGradient>
    <linearGradient
       id="outerBackgroundGradient-8">
      <stop
         style="stop-color:#465674;stop-opacity:1"
         offset="0"
         id="stop3864-8-6-9" />
      <stop
         style="stop-color:#798bac;stop-opacity:1"
         offset="1"
         id="stop3866-9-1-0" />
    </linearGradient>
    <linearGradient
       inkscape:collect="always"
       xlink:href="#outerBackgroundGradient-43"
       id="linearGradient7328"
       gradientUnits="userSpaceOnUse"
       gradientTransform="matrix(0,-0.39261645,0.39261645,0,-13.25666,104.52827)"
       x1="35"
       y1="156"
       x2="253"
       y2="156" />
    <linearGradient
       id="outerBackgroundGradient-43">
      <stop
         style="stop-color:#2c333d;stop-opacity:1"
         offset="0"
         id="stop3864-8-6-744" />
      <stop
         style="stop-color:#485362;stop-opacity:1"
         offset="1"
         id="stop3866-9-1-541" />
    </linearGradient>
    <clipPath
       clipPathUnits="userSpaceOnUse"
       id="clipPath4492">
      <path
         id="path4494"
         d="m 15.562635,9.6015624 c -3.857522,0 -6.9609379,3.1034156 -6.9609379,6.9609376 v 16.875 c 0,3.857522 3.1034159,6.960937 6.9609379,6.960937 h 16.875 c 3.857522,0 6.960937,-3.103415 6.960937,-6.960937 v -16.875 c 0,-3.857522 -3.103415,-6.9609376 -6.960937,-6.9609376 z"
         style="color:#bebebe;display:inline;overflow:visible;visibility:visible;opacity:0.5;fill:#b35151;fill-opacity:1;fill-rule:nonzero;stroke:none;stroke-width:2;marker:none;enable-background:accumulate"
         inkscape:connector-curvature="0" />
    </clipPath>
    <linearGradient
       id="linearGradient3929">
      <stop
         style="stop-color:#f6a602;stop-opacity:1;"
         offset="0"
         id="stop3931" />
      <stop
         style="stop-color:#ffb621;stop-opacity:1;"
         offset="1"
         id="stop3933" />
    </linearGradient>
    <clipPath
       clipPathUnits="userSpaceOnUse"
       id="clipPath10483">
      <path
         inkscape:connector-curvature="0"
         id="path10485"
         d="m 84,46.500023 c -27.43126,0 -49.5,22.06873 -49.5,49.5 V 216.00002 c 0,27.43127 22.06874,49.5 49.5,49.5 h 120 c 27.43127,0 49.5,-22.06873 49.5,-49.5 V 96.000023 c 0,-27.43127 -22.06873,-49.5 -49.5,-49.5 z"
         style="color:#bebebe;display:inline;overflow:visible;visibility:visible;opacity:0.5;fill:#bf4f4f;fill-opacity:1;fill-rule:nonzero;stroke:none;stroke-width:2;marker:none;enable-background:accumulate" />
    </clipPath>
  </defs>
  <path
     inkscape:connector-curvature="0"
     style="color:#bebebe;display:inline;overflow:visible;visibility:visible;fill:url(#linearGradient7328);fill-opacity:1;fill-rule:nonzero;stroke:none;stroke-width:0.785233;marker:none;enable-background:accumulate"
     d="M 24.43451,5 C 13.66455,5 5,13.664547 5,24.434514 v 47.11398 c 0,10.76996 8.66455,19.43451 19.43451,19.43451 h 47.11398 c 10.76996,0 19.43451,-8.66455 19.43451,-19.43451 V 24.434514 C 90.983,13.664547 82.31845,5 71.54849,5 Z"
     id="path4200-3" />
  <g
     style="display:inline;enable-background:new"
     id="g3503"
     transform="matrix(2.7919391,0,0,2.7919391,-19.006914,-21.798477)"
     clip-path="url(#clipPath4492)" />
  <g
     id="g7477"
     transform="matrix(1.2333191,0,0,1.2348993,-18.279969,-8.5738247)">
    <rect
       style="fill:#ffffff;fill-rule:evenodd;stroke-width:0.934448"
       id="rect385"
       width="2.858"
       height="2.858"
       x="31.031981"
       y="26.398619"
       transform="translate(6.9585491,0.8678909)" />
    <rect
       style="fill:#ffffff;fill-rule:evenodd;stroke-width:0.934448"
       id="rect385-03"
       width="2.858"
       height="2.858"
       x="42.463985"
       y="60.694626"
       transform="translate(6.9585491,0.8678909)" />
    <rect
       style="fill:#ffffff;fill-rule:evenodd;stroke-width:0.934448"
       id="rect385-03-0-4-4-4-4-7-6-3-1-7-5-9-6-2-1-7-8-5-7-4-1-8-5"
       width="2.858"
       height="2.858"
       x="42.463985"
       y="43.546616"
       transform="translate(6.9585491,0.8678909)" />
    <rect
       style="fill:#ffffff;fill-rule:evenodd;stroke-width:0.934448"
       id="rect385-03-0-4-4-4-4-7-6-3-1-7-5-9-6-2-1-7-8-5-7-4-1-8-5-9"
       width="2.858"
       height="2.858"
       x="39.605984"
       y="40.688614"
       transform="translate(6.9585491,0.8678909)" />
    <rect
       style="fill:#ffffff;fill-rule:evenodd;stroke-width:0.934448"
       id="rect385-0"
       width="2.858"
       height="2.858"
       x="25.315981"
       y="32.114616"
       transform="translate(6.9585491,0.8678909)" />
    <rect
       style="fill:#ffffff;fill-rule:evenodd;stroke-width:0.934448"
       id="rect385-0-5"
       width="2.858"
       height="2.858"
       x="31.031981"
       y="43.546616"
       transform="translate(6.9585491,0.8678909)" />
    <rect
       style="fill:#ffffff;fill-rule:evenodd;stroke-width:0.934448"
       id="rect385-0-5-0-9-6-3-8-5-6-1-1-5"
       width="2.858"
       height="2.858"
       x="33.88998"
       y="57.836624"
       transform="translate(6.9585491,0.8678909)" />
    <rect
       style="fill:#ffffff;fill-rule:evenodd;stroke-width:0.934448"
       id="rect385-0-5-0-9-6-3-8-5-6-1-1-5-9"
       width="2.858"
       height="2.858"
       x="31.031981"
       y="52.120621"
       transform="translate(6.9585491,0.8678909)" />
    <rect
       style="fill:#ffffff;fill-rule:evenodd;stroke-width:0.934448"
       id="rect385-0-5-0-9-6-3-8-5-6-1-1-5-9-8"
       width="2.858"
       height="2.858"
       x="28.173981"
       y="54.978622"
       transform="translate(6.9585491,0.8678909)" />
    <rect
       style="fill:#ffffff;fill-rule:evenodd;stroke-width:0.934448"
       id="rect385-0-5-0-9-6-3-8-5-6-1-1-5-9-8-4"
       width="2.858"
       height="2.858"
       x="28.173981"
       y="49.262619"
       transform="translate(6.9585491,0.8678909)" />
    <rect
       style="fill:#ffffff;fill-rule:evenodd;stroke-width:0.934448"
       id="rect385-0-5-0-9-6-3-8-5-6-1-1-5-9-8-4-8"
       width="2.858"
       height="2.858"
       x="25.315981"
       y="46.404617"
       transform="translate(6.9585491,0.8678909)" />
    <rect
       style="fill:#ffffff;fill-rule:evenodd;stroke-width:0.934448"
       id="rect385-0-5-0-9-6-3-8-5-6-1-1-5-9-8-4-8-1"
       width="2.858"
       height="2.858"
       x="22.457981"
       y="52.120625"
       transform="translate(6.9585491,0.8678909)" />
    <rect
       style="fill:#ffffff;fill-rule:evenodd;stroke-width:0.934448"
       id="rect385-0-8"
       width="2.858"
       height="2.858"
       x="28.173981"
       y="40.688614"
       transform="translate(6.9585491,0.8678909)" />
    <path
       style="fill:#ffffff;stroke-width:0.0625"
       d="m 40.90625,50.125 v -2.84375 h 1.40625 1.40625 V 45.875 44.46875 h 1.40625 1.40625 v 1.40625 1.40625 h 1.4375 1.4375 v 1.40625 1.40625 h -2.875 -2.875 v 1.4375 1.4375 h -1.375 -1.375 z"
       id="path6495" />
    <path
       style="fill:#ffffff;stroke-width:0.03125"
       d="m 46.578752,60.105366 c 9.74e-4,-0.79283 -0.0058,-1.44908 -0.01505,-1.458334 -0.0093,-0.0093 -0.01682,-4.17e-4 -0.01682,0.01963 0,0.02724 -0.355655,0.03646 -1.40625,0.03646 h -1.40625 v -2.84375 -2.84375 h 1.40625 1.40625 l 0.0059,1.601562 c 0.0032,0.88086 0.01098,1.520704 0.01718,1.421875 l 0.01128,-0.179687 h 1.420149 1.42015 l -6e-6,2.84375 -6e-6,2.84375 H 47.999256 46.57698 l 0.0018,-1.441509 z"
       id="path6747" />
    <path
       style="fill:#ffffff;stroke-width:0.125"
       d="m 55.1875,63 v -1.4375 h 1.375 1.375 V 60.125 58.6875 H 55.125 52.3125 V 57.25 55.8125 H 50.875 49.4375 V 53 50.1875 h 2.8125 2.8125 v -0.669164 c 0,-0.36804 0.03614,-1.014915 0.08031,-1.4375 L 55.22311,47.3125 H 58.017807 60.8125 V 45.875 44.4375 h -4.25 -4.25 V 43 41.5625 H 53.75 55.1875 V 40.125 38.6875 h 1.375 1.375 v -1.375 -1.375 h -8.171875 c -4.494531,0 -8.34943,-0.03551 -8.56644,-0.07891 L 40.804619,35.779674 40.83981,34.389837 40.875,33 43.71875,32.9664 46.5625,32.9328 V 31.560153 30.1875 H 45.125 43.6875 v -1.5 -1.5 H 60.87662 78.06574 L 78.03287,31.53125 78,35.875 l -5.63602,0.03251 -5.636019,0.03251 -0.08254,4.40499 c -0.0454,2.422745 -0.08262,8.834677 -0.08273,14.24874 L 66.5625,64.4375 H 60.875 55.1875 Z M 55.14199,55.232554 C 55.09827,54.913582 55.0625,54.266707 55.0625,53.795054 V 52.9375 h -1.375 -1.375 v 1.4375 1.4375 h 1.45449 1.454491 z M 60.8125,54.4375 v -1.375 H 59.375 57.9375 v 1.375 1.375 h 1.4375 1.4375 z m -8.625,-22.875 v -1.375 h -1.375 -1.375 v 1.375 1.375 h 1.375 1.375 z m 8.625,0 v -1.375 h -1.375 -1.375 v 1.375 1.375 h 1.375 1.375 z"
       id="path7154" />
  </g>
</svg>
